<svg width="186" height="64" viewBox="0 0 186 64" fill="none" xmlns="http://www.w3.org/2000/svg">
  <defs>
    <linearGradient id="mironet_gradient" x1="92.657" y1=".537" x2="92.657" y2="63.551" gradientUnits="userSpaceOnUse">
      <stop stop-color="#3D80BC"/>
      <stop offset=".1" stop-color="#3D80BC"/>
      <stop offset="1" stop-color="#283675"/>
    </linearGradient>
  </defs>
  <g fill-rule="evenodd" clip-rule="evenodd">
    <path d="M186 58.004a5.932 5.932 0 0 1-5.923 5.937H5.923A5.926 5.926 0 0 1 0 58.004V6A5.928 5.928 0 0 1 5.923.063h174.154A5.93 5.93 0 0 1 186 5.998v52.005Z" fill="url(#mironet_gradient)"/>
    <path d="M170.218 43.74h-6.345v-17.7h-3.467v-5.71h13.434v5.711h-3.622V43.74Zm-24.048 0V20.254h11.695v5.589h-5.42v3.255h4.894v5.528h-4.894v3.57h5.42v5.542H146.17Zm-20.197 0V20.33h5.975l5.105 14.063.061-.062-.742-8.074V20.33h6.069v23.41h-6.088l-4.697-13.537-.065.06.432 6.614v6.862h-6.05Zm-11.907-17.948c-1.008 0-1.711.808-2.109 2.424a18.576 18.576 0 0 0-.366 4.067 13.78 13.78 0 0 0 .47 3.908c.418 1.386 1.085 2.081 2.015 2.081h.061c.883 0 1.536-.704 1.949-2.123.338-1.27.496-2.583.47-3.898a16.91 16.91 0 0 0-.404-4.087c-.414-1.578-1.104-2.348-2.072-2.348m-8.966 6.158c0-3.899.889-6.944 2.668-9.136a7.326 7.326 0 0 1 5.913-2.945 8.226 8.226 0 0 1 6.67 3.152c1.724 2.094 2.583 4.931 2.583 8.487 0 3.372-.659 6.177-1.977 8.412-1.629 2.775-4.035 4.162-7.219 4.162-2.396 0-4.395-1.035-5.999-3.105-1.756-2.254-2.635-5.265-2.635-9.032m-11.667-.84a2.818 2.818 0 0 0 2.198-.809c.511-.58.777-1.336.742-2.109a2.819 2.819 0 0 0-.775-2.085 2.931 2.931 0 0 0-2.165-.775v5.777Zm-6.284 12.61V20.33h6.106c3.319 0 5.744.627 7.275 1.88 1.442 1.193 2.166 3.01 2.166 5.43a8.246 8.246 0 0 1-.888 4.053 5.103 5.103 0 0 1-2.771 2.297l4.739 9.75h-6.848l-3.495-9.656v9.656h-6.284Zm-3.758 0h-6.275V20.33h6.284l-.009 23.41Zm-8.577 0h-6.528l-.616-14.748-2.663 14.748h-5.129l-2.222-14.748-.68 14.748h-6.76l2.743-23.41h7.835l1.827 12.42 2.165-12.42h7.802l2.226 23.41ZM41.705 20.254a17.66 17.66 0 0 1-13.152 29.412 17.449 17.449 0 0 1-10.742-3.682l8.394-15.289-3.288 14.843L33.08 27.065l-3.325 15.077 11.949-21.888Zm-13.152-5.918a17.534 17.534 0 0 1 12.274 5.016h-6.05l-.78 3.537h-6.045l-.784 3.556h-6.012l-4.19 18.849a17.666 17.666 0 0 1 11.587-30.958Z" fill="#fff"/>
  </g>
</svg>
